<?xml version="1.0" encoding="UTF-8" standalone="no"?>
<svg
   xmlns:dc="http://purl.org/dc/elements/1.1/"
   xmlns:cc="http://creativecommons.org/ns#"
   xmlns:rdf="http://www.w3.org/1999/02/22-rdf-syntax-ns#"
   xmlns:svg="http://www.w3.org/2000/svg"
   xmlns="http://www.w3.org/2000/svg"
   xmlns:sodipodi="http://sodipodi.sourceforge.net/DTD/sodipodi-0.dtd"
   xmlns:inkscape="http://www.inkscape.org/namespaces/inkscape"
   width="37.52277mm"
   height="37.546093mm"
   viewBox="0 0 37.52277 37.546093"
   version="1.1"
   id="svg887"
   inkscape:version="1.0.2 (e86c870879, 2021-01-15)"
   sodipodi:docname="setting-minilogo.svg">
  <defs
     id="defs881" />
  <sodipodi:namedview
     id="base"
     pagecolor="#ffffff"
     bordercolor="#666666"
     borderopacity="1.0"
     inkscape:pageopacity="0.0"
     inkscape:pageshadow="2"
     inkscape:zoom="0.35"
     inkscape:cx="94.583071"
     inkscape:cy="332.38614"
     inkscape:document-units="mm"
     inkscape:current-layer="layer1"
     inkscape:document-rotation="0"
     showgrid="false"
     inkscape:window-width="1453"
     inkscape:window-height="1004"
     inkscape:window-x="50"
     inkscape:window-y="40"
     inkscape:window-maximized="0" />
  <metadata
     id="metadata884">
    <rdf:RDF>
      <cc:Work
         rdf:about="">
        <dc:format>image/svg+xml</dc:format>
        <dc:type
           rdf:resource="http://purl.org/dc/dcmitype/StillImage" />
        <dc:title />
      </cc:Work>
    </rdf:RDF>
  </metadata>
  <g
     inkscape:label="Layer 1"
     inkscape:groupmode="layer"
     id="layer1"
     transform="translate(-80.808229,-60.222834)">
    <path
       d="m 105.28877,88.099764 c -1.51342,-1.51342 -2.98098,-2.99156 -4.47323,-4.44853 -0.12347,-0.11994 -0.40569,-0.14464 -0.59972,-0.11642 -0.673805,0.0952 -1.340555,0.30692 -2.017895,0.3422 -4.28625,0.22578 -7.72583,-3.91584 -6.69572,-8.06098 0.0811,-0.32102 0.33514,-0.75141 0.59972,-0.82902 0.26459,-0.0776 0.70909,0.14816 0.9525,0.37394 0.91722,0.8502 1.77095,1.76742 2.67759,2.63172 0.18697,0.17639 0.49741,0.33514 0.74436,0.32809 0.57855,-0.0176 1.15358,-0.13406 1.72861,-0.22578 0.3563,-0.0564 0.60678,-0.20108 0.635,-0.63147 0.0423,-0.55739 0.19403,-1.11125 0.20814,-1.66864 0.0106,-0.27164 -0.11995,-0.61031 -0.30692,-0.80786 -0.89606,-0.95956 -1.83797,-1.87325 -2.74814,-2.8187 -0.55386,-0.57503 -0.37747,-1.28764 0.39864,-1.38641 0.94192,-0.12348 1.93675,-0.24342 2.84692,-0.067 4.049895,0.79375 6.307665,4.68136 5.069415,8.61836 -0.127,0.40217 -0.0494,0.635 0.23989,0.91369 1.29823,1.27 2.57175,2.56117 3.85586,3.84175 0.127,0.127 0.27164,0.23989 0.40923,0.36337 2.413,-3.683 2.21191,-9.84603 -2.30011,-13.69837 -4.31448,-3.682997 -10.706815,-3.330219 -14.767285,0.82198 -3.95111,4.03577 -4.0005,10.56569 -0.0635,14.82725 3.79941,4.10986 9.838975,4.30741 13.606645,1.69686 M 97.679345,60.22326 h 3.753555 c 1.17828,0.395111 1.18181,0.423334 1.26295,1.700389 0.0247,0.430389 0.12347,0.871361 0.27869,1.27 1.08303,2.769306 4.54731,3.471334 6.76981,1.386417 0.66675,-0.627944 1.13242,-0.677333 1.78858,-0.0635 0.89253,0.839611 1.76389,1.710972 2.59292,2.614083 0.60325,0.659695 0.54328,1.160635 -0.0564,1.799165 -1.18887,1.26647 -1.57339,2.74109 -0.95956,4.37797 0.61383,1.64042 1.89442,2.52237 3.60892,2.65642 0.89958,0.0706 1.45344,0.37395 1.61219,1.27706 v 3.63008 c -0.16933,0.70203 -0.39158,1.29117 -1.3088,1.28764 -1.81681,-0.0106 -3.18912,0.81139 -3.92642,2.4765 -0.75142,1.70392 -0.35278,3.25261 0.89958,4.60022 0.59972,0.64206 0.66322,1.10772 0.0706,1.74272 -0.8502,0.9137 -1.7392,1.79212 -2.65995,2.63525 -0.67733,0.62442 -1.14652,0.55387 -1.84502,-0.067 -1.32998,-1.18181 -2.86809,-1.55575 -4.51909,-0.85725 -1.62278,0.69144 -2.43064,2.01789 -2.49061,3.7853 -0.0317,0.84314 -0.37394,1.25236 -1.19944,1.27353 -1.24531,0.0282 -2.494145,0.0282 -3.742985,-0.004 -0.83255,-0.0247 -1.16416,-0.43391 -1.1818,-1.28411 -0.0317,-1.8168 -0.83609,-3.18911 -2.51884,-3.89467 -1.67922,-0.70555 -3.22438,-0.30338 -4.55083,0.92075 -0.58561,0.53975 -1.15711,0.62442 -1.7145,0.0988 -0.93839,-0.88547 -1.84856,-1.80622 -2.71639,-2.75872 -0.5468,-0.60678 -0.46919,-1.07244 0.10231,-1.69686 1.20297,-1.31233 1.62277,-2.80811 0.92075,-4.48733 -0.66675,-1.60162 -1.88384,-2.48356 -3.65831,-2.56117 -0.94897,-0.0388 -1.41817,-0.41275 -1.45344,-1.28411 -0.0494,-1.24531 -0.0388,-2.49767 0.0459,-3.74297 0.0635,-0.94545 0.37041,-1.11831 1.32997,-1.18181 1.73214,-0.11642 3.10797,-0.86078 3.81,-2.49767 0.71614,-1.67922 0.34925,-3.21733 -0.889,-4.54378 -0.635,-0.68438 -0.68086,-1.146523 -0.0318,-1.841496 0.80786,-0.867833 1.64747,-1.710972 2.51883,-2.511778 0.762,-0.6985 1.16417,-0.635 1.93675,0.03881 1.31587,1.146528 2.82575,1.516945 4.46264,0.853722 1.56986,-0.638528 2.43064,-1.897944 2.50825,-3.573639 0.0423,-0.860778 0.3175,-1.372305 1.15006,-1.573389"
       style="fill:#be1e2d;fill-opacity:1;fill-rule:nonzero;stroke:none;stroke-width:0.0352778"
       id="path702" />
  </g>
</svg>
