<?xml version="1.0" encoding="UTF-8" standalone="no"?>
<svg
   xmlns:dc="http://purl.org/dc/elements/1.1/"
   xmlns:cc="http://creativecommons.org/ns#"
   xmlns:rdf="http://www.w3.org/1999/02/22-rdf-syntax-ns#"
   xmlns:svg="http://www.w3.org/2000/svg"
   xmlns="http://www.w3.org/2000/svg"
   xmlns:sodipodi="http://sodipodi.sourceforge.net/DTD/sodipodi-0.dtd"
   xmlns:inkscape="http://www.inkscape.org/namespaces/inkscape"
   width="48.075115mm"
   height="35.736389mm"
   viewBox="0 0 48.075115 35.736389"
   version="1.1"
   id="svg841"
   inkscape:version="1.0.2 (e86c870879, 2021-01-15)"
   sodipodi:docname="Truck-minilogo.svg">
  <defs
     id="defs835" />
  <sodipodi:namedview
     id="base"
     pagecolor="#ffffff"
     bordercolor="#666666"
     borderopacity="1.0"
     inkscape:pageopacity="0.0"
     inkscape:pageshadow="2"
     inkscape:zoom="0.35"
     inkscape:cx="75.45622"
     inkscape:cy="359.04022"
     inkscape:document-units="mm"
     inkscape:current-layer="layer1"
     inkscape:document-rotation="0"
     showgrid="false"
     inkscape:window-width="1453"
     inkscape:window-height="1004"
     inkscape:window-x="50"
     inkscape:window-y="40"
     inkscape:window-maximized="0" />
  <metadata
     id="metadata838">
    <rdf:RDF>
      <cc:Work
         rdf:about="">
        <dc:format>image/svg+xml</dc:format>
        <dc:type
           rdf:resource="http://purl.org/dc/dcmitype/StillImage" />
        <dc:title />
      </cc:Work>
    </rdf:RDF>
  </metadata>
  <g
     inkscape:label="Layer 1"
     inkscape:groupmode="layer"
     id="layer1"
     transform="translate(-85.868875,-53.170609)">
    <path
       d="m 128.16376,71.038804 h -8.68786 v -7.531806 h 1.7593 l 6.92856,6.999112 z M 122.67666,85.732 c -1.76495,0 -3.20076,-1.435806 -3.20076,-3.199695 0,-1.763889 1.43581,-3.199695 3.20076,-3.199695 1.76565,0 3.20146,1.435806 3.20146,3.199695 0,1.763889 -1.43581,3.199695 -3.20146,3.199695 m -22.2938,0 c -1.764948,0 -3.201106,-1.435806 -3.201106,-3.199695 0,-1.763889 1.436158,-3.199695 3.201106,-3.199695 1.7653,0 3.20146,1.435806 3.20146,3.199695 0,1.763889 -1.43616,3.199695 -3.20146,3.199695 m 31.97367,-6.97089 h -1.01777 v -8.911167 c 0,-0.416278 -0.1651,-0.818444 -0.46002,-1.114778 l -7.85319,-7.930445 c -0.29845,-0.299861 -0.70449,-0.472722 -1.12818,-0.472722 h -2.42147 v -5.573889 c 0,-0.878417 -0.71085,-1.5875 -1.5875,-1.5875 H 95.594253 c -0.877005,0 -1.5875,0.709083 -1.5875,1.5875 v 4.769556 h -6.550378 c -0.876653,0 -1.5875,0.712611 -1.5875,1.5875 0,0.878417 0.710847,1.5875 1.5875,1.5875 h 3.560586 2.989792 13.330417 c 0.877,0 1.5875,0.712611 1.5875,1.5875 0,0.878417 -0.7105,1.5875 -1.5875,1.5875 H 94.006753 92.222756 c -0.876653,0 -1.5875,0.712611 -1.5875,1.5875 0,0.878417 0.710847,1.5875 1.5875,1.5875 h 1.783997 8.783817 c 0.87665,0 1.5875,0.712611 1.5875,1.5875 0,0.878417 -0.71085,1.5875 -1.5875,1.5875 h -8.783817 v 10.30464 c 0,3.517195 2.860323,6.374695 6.376107,6.374695 3.51614,0 6.37646,-2.8575 6.37646,-6.374695 0,-0.141111 -0.005,-0.282222 -0.0145,-0.423333 h 9.57015 c -0.009,0.141111 -0.0141,0.282222 -0.0141,0.423333 0,3.517195 2.85997,6.374695 6.37576,6.374695 3.5165,0 6.37646,-2.8575 6.37646,-6.374695 0,-0.201083 -0.0117,-0.398639 -0.03,-0.596194 h 3.3334 c 0.87665,0 1.5875,-0.712612 1.5875,-1.587501 0,-0.878416 -0.71084,-1.5875 -1.5875,-1.5875"
       style="fill:#be1e2d;fill-opacity:1;fill-rule:nonzero;stroke:none;stroke-width:0.0352778"
       id="path696" />
  </g>
</svg>
